<svg xmlns="http://www.w3.org/2000/svg" width="1012" height="525" viewBox="0 0 1012 525" fill="none"><path d="M349.831 262.5C349.831 334.611 340.359 399.693 325.178 446.575C317.579 470.044 308.637 488.675 298.947 501.332C289.2 514.063 279.315 520 269.831 520C260.347 520 250.462 514.063 240.715 501.332C231.025 488.675 222.083 470.044 214.484 446.575C199.303 399.693 189.831 334.611 189.831 262.5C189.831 190.389 199.303 125.308 214.484 78.4248C222.083 54.9556 231.025 36.3254 240.715 23.668C250.462 10.9368 260.347 5 269.831 5C279.315 5 289.2 10.9368 298.947 23.668C308.637 36.3254 317.579 54.9556 325.178 78.4248C340.359 125.308 349.831 190.389 349.831 262.5Z" stroke="#FBCB01" stroke-width="10"/><circle cx="315.331" cy="52.5" r="28" fill="#FBCB01" stroke="#FBCB01"/><path d="M229.831 331.782C167.381 295.726 115.755 254.983 82.744 218.394C66.2188 200.078 54.5555 183.019 48.439 168.299C42.2868 153.492 42.0879 141.963 46.8299 133.75C51.5719 125.536 61.6559 119.944 77.5547 117.869C93.3614 115.806 113.967 117.377 138.091 122.53C186.283 132.824 247.381 157.162 309.831 193.218C372.282 229.274 423.908 270.017 456.919 306.605C473.444 324.921 485.107 341.98 491.224 356.701C497.376 371.507 497.575 383.036 492.833 391.25C488.091 399.463 478.007 405.056 462.108 407.131C446.301 409.194 425.696 407.623 401.572 402.47C353.379 392.175 292.282 367.838 229.831 331.782Z" stroke="#FBCB01" stroke-width="10"/><circle cx="428.947" cy="406.904" r="28" transform="rotate(120 428.947 406.904)" fill="#FBCB01" stroke="#FBCB01"/><path d="M229.832 193.218C292.282 157.162 353.38 132.825 401.572 122.53C425.697 117.377 446.302 115.806 462.108 117.869C478.007 119.944 488.091 125.537 492.833 133.75C497.575 141.964 497.376 153.493 491.224 168.299C485.108 183.02 473.444 200.079 456.919 218.395C423.908 254.983 372.282 295.726 309.832 331.782C247.381 367.838 186.284 392.176 138.091 402.47C113.967 407.623 93.3617 409.194 77.5549 407.131C61.6562 405.056 51.5721 399.464 46.8301 391.25C42.0881 383.037 42.287 371.508 48.4392 356.701C54.5558 341.981 66.2191 324.922 82.7442 306.606C115.755 270.017 167.381 229.274 229.832 193.218Z" stroke="#FBCB01" stroke-width="10"/><circle cx="65.2159" cy="328.096" r="28" transform="rotate(-120 65.2159 328.096)" fill="#FBCB01" stroke="#FBCB01"/><path d="M543.619 171.868V161.818H596.423V171.868H575.967V228H564.075V171.868H543.619ZM616.602 228V161.818H659.646V171.868H628.591V189.836H657.416V199.886H628.591V217.95H659.904V228H616.602ZM738.526 184.148H726.44C726.095 182.166 725.46 180.41 724.534 178.881C723.607 177.33 722.455 176.015 721.076 174.938C719.697 173.861 718.124 173.053 716.358 172.515C714.613 171.954 712.728 171.674 710.703 171.674C707.105 171.674 703.916 172.579 701.137 174.389C698.358 176.177 696.182 178.805 694.61 182.274C693.037 185.721 692.251 189.933 692.251 194.909C692.251 199.972 693.037 204.237 694.61 207.706C696.204 211.153 698.38 213.76 701.137 215.526C703.916 217.271 707.094 218.144 710.67 218.144C712.652 218.144 714.505 217.885 716.229 217.368C717.974 216.83 719.535 216.043 720.914 215.009C722.315 213.975 723.489 212.704 724.437 211.196C725.406 209.688 726.074 207.964 726.44 206.026L738.526 206.09C738.074 209.236 737.093 212.187 735.585 214.945C734.099 217.702 732.149 220.137 729.736 222.248C727.323 224.338 724.501 225.975 721.27 227.16C718.038 228.323 714.451 228.905 710.509 228.905C704.692 228.905 699.5 227.558 694.933 224.865C690.365 222.172 686.768 218.284 684.139 213.2C681.511 208.115 680.197 202.018 680.197 194.909C680.197 187.778 681.522 181.681 684.172 176.619C686.822 171.534 690.43 167.646 694.997 164.953C699.565 162.26 704.735 160.913 710.509 160.913C714.193 160.913 717.618 161.43 720.785 162.464C723.952 163.499 726.774 165.017 729.252 167.021C731.729 169.003 733.765 171.437 735.359 174.324C736.975 177.19 738.031 180.464 738.526 184.148ZM759.505 228V161.818H771.494V189.836H802.161V161.818H814.183V228H802.161V199.886H771.494V228H759.505ZM891.609 161.818V228H880.945L849.76 182.92H849.211V228H837.222V161.818H847.951L879.103 206.93H879.684V161.818H891.609ZM973.809 194.909C973.809 202.04 972.474 208.148 969.802 213.232C967.152 218.295 963.533 222.172 958.944 224.865C954.377 227.558 949.196 228.905 943.401 228.905C937.605 228.905 932.413 227.558 927.825 224.865C923.257 222.151 919.638 218.262 916.967 213.2C914.317 208.115 912.992 202.018 912.992 194.909C912.992 187.778 914.317 181.681 916.967 176.619C919.638 171.534 923.257 167.646 927.825 164.953C932.413 162.26 937.605 160.913 943.401 160.913C949.196 160.913 954.377 162.26 958.944 164.953C963.533 167.646 967.152 171.534 969.802 176.619C972.474 181.681 973.809 187.778 973.809 194.909ZM961.756 194.909C961.756 189.889 960.969 185.656 959.397 182.209C957.846 178.741 955.691 176.123 952.934 174.357C950.176 172.568 946.998 171.674 943.401 171.674C939.803 171.674 936.625 172.568 933.868 174.357C931.11 176.123 928.945 178.741 927.372 182.209C925.821 185.656 925.045 189.889 925.045 194.909C925.045 199.929 925.821 204.173 927.372 207.641C928.945 211.088 931.11 213.706 933.868 215.494C936.625 217.261 939.803 218.144 943.401 218.144C946.998 218.144 950.176 217.261 952.934 215.494C955.691 213.706 957.846 211.088 959.397 207.641C960.969 204.173 961.756 199.929 961.756 194.909ZM546.528 365V298.818H571.863C576.646 298.818 580.62 299.572 583.787 301.08C586.976 302.567 589.356 304.603 590.929 307.188C592.523 309.773 593.32 312.703 593.32 315.978C593.32 318.671 592.803 320.976 591.769 322.893C590.735 324.789 589.346 326.329 587.6 327.514C585.855 328.699 583.906 329.55 581.751 330.067V330.713C584.1 330.843 586.351 331.564 588.505 332.879C590.681 334.171 592.459 336.002 593.837 338.372C595.216 340.742 595.906 343.607 595.906 346.968C595.906 350.393 595.076 353.474 593.417 356.21C591.758 358.925 589.259 361.068 585.92 362.641C582.581 364.214 578.38 365 573.317 365H546.528ZM558.517 354.982H571.411C575.762 354.982 578.897 354.153 580.814 352.494C582.753 350.814 583.723 348.659 583.723 346.031C583.723 344.07 583.238 342.304 582.268 340.731C581.299 339.137 579.92 337.887 578.132 336.983C576.344 336.056 574.211 335.593 571.734 335.593H558.517V354.982ZM558.517 326.965H570.376C572.445 326.965 574.308 326.588 575.967 325.834C577.626 325.058 578.929 323.97 579.877 322.57C580.847 321.148 581.331 319.468 581.331 317.529C581.331 314.965 580.426 312.854 578.617 311.195C576.829 309.536 574.168 308.707 570.635 308.707H558.517V326.965ZM624.834 365H612.037L635.337 298.818H650.137L673.469 365H660.672L642.995 312.391H642.478L624.834 365ZM625.254 339.051H660.155V348.681H625.254V339.051ZM692.186 365V298.818H717.004C722.088 298.818 726.354 299.701 729.801 301.468C733.269 303.235 735.887 305.712 737.654 308.901C739.442 312.067 740.336 315.762 740.336 319.985C740.336 324.229 739.431 327.913 737.621 331.037C735.833 334.139 733.194 336.541 729.704 338.243C726.214 339.923 721.927 340.763 716.843 340.763H699.166V330.81H715.227C718.2 330.81 720.634 330.401 722.53 329.582C724.426 328.742 725.826 327.525 726.731 325.931C727.657 324.315 728.121 322.333 728.121 319.985C728.121 317.636 727.657 315.633 726.731 313.974C725.805 312.294 724.394 311.023 722.498 310.161C720.602 309.278 718.157 308.836 715.162 308.836H704.175V365H692.186ZM726.376 335.011L742.759 365H729.381L713.288 335.011H726.376Z" fill="white"/><script xmlns="" type="text/javascript" src="chrome-extension://hejbmebodbijjdhflfknehhcgaklhano/../window/testing-library.js"/></svg>